<?xml version="1.0" encoding="utf-8"?>
<!-- Generator: Adobe Illustrator 27.5.0, SVG Export Plug-In . SVG Version: 6.00 Build 0)  -->
<svg version="1.1" id="Слой_1" xmlns="http://www.w3.org/2000/svg" xmlns:xlink="http://www.w3.org/1999/xlink" x="0px" y="0px"
	 viewBox="0 0 500 500" style="enable-background:new 0 0 500 500;" xml:space="preserve">
<rect style="fill:#FFFFFF;" width="500" height="500"/>
<radialGradient id="SVGID_1_" cx="6716.0117" cy="-41084.043" r="181.8769" gradientTransform="matrix(1.0018 -0.0457 0.016 0.3509 -5805.5303 15061.5225)" gradientUnits="userSpaceOnUse">
	<stop  offset="0.0721" style="stop-color:#A38E96"/>
	<stop  offset="0.3251" style="stop-color:#B9A9AF"/>
	<stop  offset="0.8654" style="stop-color:#F0EDEE"/>
	<stop  offset="1" style="stop-color:#FFFFFF"/>
</radialGradient>
<path style="opacity:0.9;fill:url(#SVGID_1_);" d="M447.57,329.895c1.607,35.225-78.719,67.508-179.438,72.087
	c-100.697,4.594-183.646-20.255-185.251-55.452c-1.606-35.218,78.737-67.498,179.434-72.091
	C363.032,269.844,445.965,294.685,447.57,329.895z"/>
<radialGradient id="SVGID_00000137833728412156104560000016959242970358398648_" cx="6746.5391" cy="-41093.2617" r="181.88" gradientTransform="matrix(1.0967 -0.0343 0.0104 0.3333 -6723.6465 14263.5527)" gradientUnits="userSpaceOnUse">
	<stop  offset="0.0721" style="stop-color:#A38E96"/>
	<stop  offset="0.3251" style="stop-color:#B9A9AF"/>
	<stop  offset="0.8654" style="stop-color:#F0EDEE"/>
	<stop  offset="1" style="stop-color:#FFFFFF"/>
</radialGradient>
<path style="opacity:0.9;fill:url(#SVGID_00000137833728412156104560000016959242970358398648_);" d="M447.533,329.519
	c1.047,33.458-87.468,63.383-197.727,66.817c-110.237,3.449-200.467-20.895-201.513-54.327
	c-1.047-33.452,87.486-63.372,197.722-66.821C356.275,271.738,446.486,296.075,447.533,329.519z"/>
<g>
	<g>
		<path style="fill:#4F7BDD;" d="M343.74,388.279l3.843,0.465l-0.703,0.589l-0.714-0.091l-9.138-1.235l-36.47-4.886l-154.631-20.746
			l-77.928-10.452l6.723-3.333l123.648-61.286l188.732,13.785l-40.223,33.829c-12.708,11.722-13.615,42.829-4.908,51.91
			C342.516,387.406,343.116,387.894,343.74,388.279z"/>
		
			<linearGradient id="SVGID_00000160913595008567560320000013761113712972156588_" gradientUnits="userSpaceOnUse" x1="337.3708" y1="342.1949" x2="442.4824" y2="342.1949">
			<stop  offset="0" style="stop-color:#4F7BDD"/>
			<stop  offset="1" style="stop-color:#4267B8"/>
		</linearGradient>
		<path style="fill:url(#SVGID_00000160913595008567560320000013761113712972156588_);" d="M346.45,387.2
			c-14.793-8.772-9.2-38.496,0.43-48.882l43.941-36.957l4.965-4.172l44.156,3.23c1.576,0.113,2.54,1.417,2.54,2.755
			c0,1.044-0.48,2.093-1.295,2.75C441.187,305.925,353.483,383.867,346.45,387.2z"/>
		
			<linearGradient id="SVGID_00000088821058838556204990000009522628040224662689_" gradientUnits="userSpaceOnUse" x1="149.6329" y1="389.8019" x2="333.3766" y2="242.2639">
			<stop  offset="0" style="stop-color:#4F7BDD"/>
			<stop  offset="1" style="stop-color:#4267B8"/>
		</linearGradient>
		<path style="fill:url(#SVGID_00000088821058838556204990000009522628040224662689_);" d="M189.979,237.047l-121.98,60.459
			c-12.47,7.936-9.069,51.015,0,54.416l278.88,37.41c-13.604-1.134-14.737-40.811,0-54.415l93.82-78.895
			c2.167-1.822,1.023-5.356-1.802-5.563L207.711,233.57C201.596,233.124,195.473,234.324,189.979,237.047z"/>
		
			<linearGradient id="SVGID_00000018208880818595683060000009622618864188804231_" gradientUnits="userSpaceOnUse" x1="202.6601" y1="372.1763" x2="204.9274" y2="354.4156">
			<stop  offset="0.0742" style="stop-color:#000000"/>
			<stop  offset="1" style="stop-color:#FFFFFF"/>
		</linearGradient>
		<path style="opacity:0.4;fill:url(#SVGID_00000018208880818595683060000009622618864188804231_);" d="M336.319,368.956
			L60.856,336.094c1.31,8.117,3.85,14.594,7.143,15.829l278.88,37.41C340.497,388.802,336.86,379.784,336.319,368.956z"/>
		
			<linearGradient id="SVGID_00000149377915466911850000000015673971299712046213_" gradientUnits="userSpaceOnUse" x1="210.008" y1="308.1632" x2="207.7407" y2="328.5689">
			<stop  offset="0.0742" style="stop-color:#000000"/>
			<stop  offset="0.5229" style="stop-color:#FFFFFF"/>
			<stop  offset="1" style="stop-color:#000000"/>
		</linearGradient>
		<path style="opacity:0.4;fill:url(#SVGID_00000149377915466911850000000015673971299712046213_);" d="M74.125,294.471
			l-6.126,3.036c-3.762,2.394-6.071,7.994-7.224,14.729l279.678,32.193c1.644-3.762,3.774-7.063,6.427-9.512l9.856-8.288
			L74.125,294.471z"/>
		<g>
			
				<linearGradient id="SVGID_00000000187289380545145500000003133713867114216583_" gradientUnits="userSpaceOnUse" x1="286.2975" y1="258.5592" x2="414.415" y2="333.9557">
				<stop  offset="0.0742" style="stop-color:#829EDD"/>
				<stop  offset="1" style="stop-color:#4F7BDD"/>
			</linearGradient>
			<path style="fill:url(#SVGID_00000000187289380545145500000003133713867114216583_);" d="M442.482,307.313
				c0.04,1.019-0.262,1.924-0.976,2.449l-92.926,78.144l-1.701,1.428c-13.724-1.278-14.636-40.915,0-54.415l40.223-33.829
				l4.966-4.172l46.786-39.338l1.848-1.553c0.261-0.216,0.465-0.454,0.635-0.715c0.238-0.362,0.374-0.759,0.442-1.156v3.424
				c-0.113,0.669-0.454,1.326-1.077,1.848l-44.916,37.763l-4.965,4.172l-43.941,36.957c-9.512,10.375-10.202,40.813-1.224,47.115
				c2.357,0.499,93.438-78.09,93.368-78.121c2.595-2.177,3.458-2.623,3.458-4.138V307.313z"/>
			
				<linearGradient id="SVGID_00000154416501957471239490000010613974487107645593_" gradientUnits="userSpaceOnUse" x1="286.2975" y1="258.5592" x2="414.415" y2="333.9557">
				<stop  offset="0.0742" style="stop-color:#829EDD"/>
				<stop  offset="1" style="stop-color:#4F7BDD"/>
			</linearGradient>
			<path style="opacity:0.3;fill:url(#SVGID_00000154416501957471239490000010613974487107645593_);" d="M442.482,307.313
				c0.04,1.019-0.262,1.924-0.976,2.449l-92.926,78.144l-1.701,1.428c-13.724-1.278-14.636-40.915,0-54.415l40.223-33.829
				l4.966-4.172l46.786-39.338l1.848-1.553c0.261-0.216,0.465-0.454,0.635-0.715c0.238-0.362,0.374-0.759,0.442-1.156v3.424
				c-0.113,0.669-0.454,1.326-1.077,1.848l-44.916,37.763l-4.965,4.172l-43.941,36.957c-9.512,10.375-10.202,40.813-1.224,47.115
				c2.357,0.499,93.438-78.09,93.368-78.121c2.595-2.177,3.458-2.623,3.458-4.138V307.313z"/>
			
				<linearGradient id="SVGID_00000119083010750586290200000005312575967693104815_" gradientUnits="userSpaceOnUse" x1="286.2857" y1="258.5584" x2="414.4115" y2="333.9598">
				<stop  offset="0.0742" style="stop-color:#829EDD"/>
				<stop  offset="1" style="stop-color:#4F7BDD"/>
			</linearGradient>
			<path style="opacity:0.3;fill:url(#SVGID_00000119083010750586290200000005312575967693104815_);" d="M442.483,303.176v4.136
				c0.039,1.02-0.263,1.925-0.977,2.45l-92.925,78.145l-1.701,1.427c-2.936-0.273-5.066-2.217-6.607-4.745
				c-1.798-2.933-3.008-7.008-3.602-11.621c-0.377-2.947-0.507-6.115-0.374-9.346c0.449-10.906,3.87-22.512,10.583-28.702
				l40.224-33.831l4.965-4.169l46.33-38.957l0.456-0.383l1.849-1.554c0.26-0.214,0.465-0.452,0.634-0.715
				c0.238-0.362,0.374-0.758,0.443-1.155v3.424c-0.114,0.67-0.455,1.327-1.077,1.85l-2.863,2.407l-42.054,35.354l-4.966,4.172
				l-43.94,36.956c-8.426,9.189-9.932,34.121-3.925,44.076c0.775,1.282,1.674,2.317,2.7,3.038
				c2.358,0.501,93.44-78.088,93.367-78.121C441.625,305.13,442.483,304.686,442.483,303.176z"/>
			
				<linearGradient id="SVGID_00000140003123036032139880000015562428426603357837_" gradientUnits="userSpaceOnUse" x1="286.2861" y1="258.5584" x2="414.4117" y2="333.9597">
				<stop  offset="0.0742" style="stop-color:#829EDD"/>
				<stop  offset="1" style="stop-color:#4F7BDD"/>
			</linearGradient>
			<path style="opacity:0.3;fill:url(#SVGID_00000140003123036032139880000015562428426603357837_);" d="M442.483,303.176v4.136
				c0.039,1.02-0.263,1.925-0.977,2.45l-92.925,78.145l-1.701,1.427c-2.931-0.273-5.064-2.212-6.607-4.745
				c-1.798-2.933-3.008-7.008-3.602-11.621c-0.377-2.947-0.507-6.115-0.374-9.346c0.036-0.891,0.094-1.786,0.172-2.683
				c0.856-10.082,4.248-20.336,10.411-26.02l40.224-33.831l4.965-4.169l46.33-38.957l0.456-0.383l1.849-1.554
				c0.26-0.214,0.465-0.452,0.634-0.715c0.238-0.362,0.374-0.758,0.443-1.155v3.424c-0.114,0.67-0.455,1.327-1.077,1.85
				l-2.863,2.407l-42.054,35.354l-4.966,4.172l-43.94,36.956c-0.079,0.085-0.154,0.169-0.232,0.26
				c-0.078,0.088-0.154,0.178-0.229,0.269c-0.075,0.091-0.15,0.181-0.227,0.274c-7.816,9.763-9.077,33.596-3.236,43.273
				c0.692,1.15,1.594,2.258,2.7,3.038c2.358,0.501,93.44-78.088,93.367-78.121C441.625,305.13,442.483,304.686,442.483,303.176z"/>
		</g>
		
			<linearGradient id="SVGID_00000012438348452655978620000010080350210574984105_" gradientUnits="userSpaceOnUse" x1="400.7802" y1="334.5086" x2="380.8689" y2="310.9771">
			<stop  offset="0.2523" style="stop-color:#F7E7D0"/>
			<stop  offset="0.3745" style="stop-color:#F5E3C9"/>
			<stop  offset="0.5527" style="stop-color:#F0D7B6"/>
			<stop  offset="0.7652" style="stop-color:#E8C396"/>
			<stop  offset="1" style="stop-color:#DDA86A"/>
		</linearGradient>
		<path style="fill:url(#SVGID_00000012438348452655978620000010080350210574984105_);" d="M439.204,303.685l-95.072,80.344
			c-0.423-0.485-0.815-1.034-1.177-1.635c-5.841-9.678-4.58-33.511,3.236-43.273c0.076-0.094,0.151-0.184,0.227-0.274
			c0.075-0.091,0.151-0.181,0.229-0.269c0.078-0.091,0.153-0.175,0.232-0.26l43.94-36.956l4.966-4.172l42.054-35.354
			C435.831,276.89,435.867,291.026,439.204,303.685z"/>
	</g>
	
		<radialGradient id="SVGID_00000157276760518519339140000004156689357370304947_" cx="6859.7793" cy="-41351.1641" r="181.8644" gradientTransform="matrix(0.7193 0.1909 -0.072 0.2712 -7679.6309 10216.3809)" gradientUnits="userSpaceOnUse">
		<stop  offset="0.0721" style="stop-color:#A38E96"/>
		<stop  offset="0.3251" style="stop-color:#B9A9AF"/>
		<stop  offset="0.8654" style="stop-color:#F0EDEE"/>
		<stop  offset="1" style="stop-color:#FFFFFF"/>
	</radialGradient>
	<path style="opacity:0.9;fill:url(#SVGID_00000157276760518519339140000004156689357370304947_);" d="M362.815,346.23
		c-7.226,27.22-71.694,33.733-144.006,14.526c-72.3-19.191-125.061-56.832-117.841-84.031c7.224-27.216,71.703-33.722,144.003-14.53
		C317.287,281.391,370.037,319.022,362.815,346.23z"/>
	
		<radialGradient id="SVGID_00000048464832255913657430000013294251476124418967_" cx="6832.0684" cy="-41401.7422" r="181.864" gradientTransform="matrix(0.7193 0.1909 -0.072 0.2712 -7679.6309 10216.3809)" gradientUnits="userSpaceOnUse">
		<stop  offset="0.0721" style="stop-color:#A38E96"/>
		<stop  offset="0.3251" style="stop-color:#B9A9AF"/>
		<stop  offset="0.8654" style="stop-color:#F0EDEE"/>
		<stop  offset="1" style="stop-color:#FFFFFF"/>
	</radialGradient>
	<path style="opacity:0.9;fill:url(#SVGID_00000048464832255913657430000013294251476124418967_);" d="M346.524,327.224
		c-7.226,27.221-71.694,33.734-144.006,14.526c-72.3-19.191-125.061-56.831-117.841-84.03
		c7.224-27.216,71.703-33.722,144.003-14.531C300.996,262.384,353.746,300.016,346.524,327.224z"/>
	
		<radialGradient id="SVGID_00000128482682373056608990000008742326322218684862_" cx="6831.9307" cy="-41245.0625" r="181.8789" gradientTransform="matrix(0.8475 0.1421 -0.0602 0.3593 -7993.7656 14116.4707)" gradientUnits="userSpaceOnUse">
		<stop  offset="0.0721" style="stop-color:#A38E96"/>
		<stop  offset="0.3251" style="stop-color:#B9A9AF"/>
		<stop  offset="0.8654" style="stop-color:#F0EDEE"/>
		<stop  offset="1" style="stop-color:#FFFFFF"/>
	</radialGradient>
	<path style="opacity:0.9;fill:url(#SVGID_00000128482682373056608990000008742326322218684862_);" d="M433.51,293.802
		c-6.047,36.067-80.007,53.733-165.21,39.433c-85.188-14.282-149.355-55.118-143.313-91.157
		c6.046-36.061,80.019-53.72,165.207-39.438C375.4,216.924,439.554,257.75,433.51,293.802z"/>
	
		<radialGradient id="SVGID_00000152254605853360765680000015237181747821817730_" cx="6830.8716" cy="-41274.2148" r="181.8761" gradientTransform="matrix(0.8475 0.1421 -0.0689 0.411 -8355.1836 16270.7002)" gradientUnits="userSpaceOnUse">
		<stop  offset="0.0721" style="stop-color:#A38E96"/>
		<stop  offset="0.3251" style="stop-color:#B9A9AF"/>
		<stop  offset="0.8654" style="stop-color:#F0EDEE"/>
		<stop  offset="1" style="stop-color:#FFFFFF"/>
	</radialGradient>
	<path style="opacity:0.9;fill:url(#SVGID_00000152254605853360765680000015237181747821817730_);" d="M432.034,303.53
		c-6.917,41.256-81.582,63.13-166.785,48.827c-85.188-14.282-148.648-59.327-141.737-100.553
		c6.915-41.249,81.594-63.114,166.782-48.832C375.5,217.258,438.948,262.292,432.034,303.53z"/>
	
		<radialGradient id="SVGID_00000090294073956831229980000000781830739606852285_" cx="6768.8779" cy="-41365.9102" r="39.4479" gradientTransform="matrix(0.6213 0.1042 -0.0644 0.384 -6457.6479 15443.8135)" gradientUnits="userSpaceOnUse">
		<stop  offset="0.0721" style="stop-color:#A38E96"/>
		<stop  offset="0.3251" style="stop-color:#B9A9AF"/>
		<stop  offset="0.8654" style="stop-color:#F0EDEE"/>
		<stop  offset="1" style="stop-color:#FFFFFF"/>
	</radialGradient>
	<path style="opacity:0.9;fill:url(#SVGID_00000090294073956831229980000000781830739606852285_);" d="M436.35,268.734
		c-1.401,8.36-13.518,13.298-27.066,11.022c-13.546-2.271-23.392-10.893-21.991-19.248c1.401-8.358,13.52-13.295,27.066-11.024
		C427.907,251.757,437.751,260.377,436.35,268.734z"/>
	
		<radialGradient id="SVGID_00000039816437552753100550000017951249495310647194_" cx="6763.9263" cy="-41352.7852" r="39.4481" gradientTransform="matrix(0.6213 0.1042 -0.0644 0.384 -6457.6479 15443.8135)" gradientUnits="userSpaceOnUse">
		<stop  offset="0.0721" style="stop-color:#A38E96"/>
		<stop  offset="0.3251" style="stop-color:#B9A9AF"/>
		<stop  offset="0.8654" style="stop-color:#F0EDEE"/>
		<stop  offset="1" style="stop-color:#FFFFFF"/>
	</radialGradient>
	<path style="opacity:0.9;fill:url(#SVGID_00000039816437552753100550000017951249495310647194_);" d="M432.428,273.259
		c-1.401,8.36-13.518,13.299-27.066,11.023c-13.546-2.271-23.392-10.893-21.991-19.248c1.401-8.358,13.52-13.295,27.066-11.024
		C423.984,256.281,433.829,264.902,432.428,273.259z"/>
	<g>
		
			<linearGradient id="SVGID_00000054975449956133490480000011427555298121493663_" gradientUnits="userSpaceOnUse" x1="287.9739" y1="295.406" x2="430.4557" y2="295.406">
			<stop  offset="0" style="stop-color:#F8913E"/>
			<stop  offset="1" style="stop-color:#E67A22"/>
		</linearGradient>
		<path style="fill:url(#SVGID_00000054975449956133490480000011427555298121493663_);" d="M296.525,342.787l-1.252-0.791
			c-9.151-13.577-9.756-37.946-1.486-55.254c1.957-4.094,5.16-7.463,9.115-9.688l48.656-27.165l3.406-1.864l74.362,18.526
			c0.748,0.188,1.146,0.842,1.128,1.49c-0.012,0.495-0.045,1.679-0.555,1.959L296.525,342.787z"/>
		
			<linearGradient id="SVGID_00000001625809262620313710000004389237325746682293_" gradientUnits="userSpaceOnUse" x1="365.1515" y1="299.5718" x2="343.5825" y2="253.3888">
			<stop  offset="0.2523" style="stop-color:#F7E7D0"/>
			<stop  offset="0.3656" style="stop-color:#F4E2C9"/>
			<stop  offset="0.5309" style="stop-color:#EBD4B5"/>
			<stop  offset="0.7281" style="stop-color:#DDBD96"/>
			<stop  offset="0.9481" style="stop-color:#C99D6A"/>
			<stop  offset="1" style="stop-color:#C4955E"/>
		</linearGradient>
		<path style="fill:url(#SVGID_00000001625809262620313710000004389237325746682293_);" d="M415.673,214.755
			c-4.17,21.163-3.875,40.898,0,59.486l-121.12,66.63c-8.643-14.07-8.752-38.308-0.549-55.124c1.864-3.825,4.863-6.98,8.595-9.026
			l48.96-26.831l3.406-1.864L415.673,214.755z"/>
		
			<linearGradient id="SVGID_00000183946004494420154590000016910983678556169127_" gradientUnits="userSpaceOnUse" x1="336.1489" y1="285.8565" x2="335.0801" y2="283.5682">
			<stop  offset="0.2523" style="stop-color:#F7E7D0"/>
			<stop  offset="0.3745" style="stop-color:#F5E3C9"/>
			<stop  offset="0.5527" style="stop-color:#F0D7B6"/>
			<stop  offset="0.7652" style="stop-color:#E8C396"/>
			<stop  offset="1" style="stop-color:#DDA86A"/>
		</linearGradient>
		<path style="fill:url(#SVGID_00000183946004494420154590000016910983678556169127_);" d="M310.083,298.376
			c0,0,28.962-15.386,35.298-18.704c6.335-3.319,15.988-8.146,15.988-8.146s-21.721,12.67-27.755,15.688
			C327.581,290.23,310.083,298.376,310.083,298.376z"/>
		<path style="fill:#A7EA86;" d="M208.802,147.271l-126.49,65.591c-9.956,11.902-10.559,55.344,0,67.051l214.093,65.141
			c-14.68-12.891-13.474-47.886,0-67.052l133.277-73.037c1.188-0.651,0.96-2.424-0.355-2.751L208.802,147.271z"/>
		<polygon style="fill:#A7EA86;" points="430.454,203.643 430.454,205.824 423.818,206.664 426.582,203.643 		"/>
		
			<linearGradient id="SVGID_00000018197425953232158080000009183584079392130480_" gradientUnits="userSpaceOnUse" x1="261.7211" y1="267.9496" x2="405.3219" y2="277.0001">
			<stop  offset="0" style="stop-color:#F8913E"/>
			<stop  offset="0.5115" style="stop-color:#F78F3C"/>
			<stop  offset="0.7571" style="stop-color:#F28934"/>
			<stop  offset="0.9458" style="stop-color:#E97E27"/>
			<stop  offset="1" style="stop-color:#E67A22"/>
		</linearGradient>
		<path style="fill:url(#SVGID_00000018197425953232158080000009183584079392130480_);" d="M430.455,203.665v2.157
			c-0.015,0.492-0.263,0.978-0.772,1.255l-74.718,40.948l-3.406,1.864l-48.96,26.831c-3.731,2.045-6.729,5.201-8.595,9.025
			c-8.22,16.852-8.093,41.153,0.601,55.213c0.411,0.665,1.053,1.154,1.801,1.381l0,0l129.621-71.034l0.003-0.003l3.557-1.946
			l0.097-0.054c0.51-0.28,0.761-0.767,0.772-1.262v2.677c0,0.023,0,0.048-0.003,0.072c-0.021,0.482-0.269,0.956-0.77,1.228
			L297.237,344.6l-0.832,0.455c-1.252-1.098-2.387-2.355-3.409-3.752c-10.976-14.988-8.918-45.766,3.409-63.3l52.505-28.771
			l3.406-1.867l75.101-41.156h0.003l2.263-1.243c0.13-0.072,0.241-0.154,0.338-0.251
			C430.316,204.429,430.455,204.045,430.455,203.665z"/>
		
			<linearGradient id="SVGID_00000013873931196092765880000010712358189098990010_" gradientUnits="userSpaceOnUse" x1="261.7211" y1="267.9496" x2="405.3219" y2="277.0001">
			<stop  offset="0" style="stop-color:#F8913E"/>
			<stop  offset="0.5115" style="stop-color:#F78F3C"/>
			<stop  offset="0.7571" style="stop-color:#F28934"/>
			<stop  offset="0.9458" style="stop-color:#E97E27"/>
			<stop  offset="1" style="stop-color:#E67A22"/>
		</linearGradient>
		<path style="opacity:0.25;fill:url(#SVGID_00000013873931196092765880000010712358189098990010_);" d="M430.455,203.665v2.157
			c-0.015,0.492-0.263,0.978-0.772,1.255l-74.718,40.948l-3.406,1.864l-48.96,26.831c-3.731,2.045-6.729,5.201-8.595,9.025
			c-8.22,16.852-8.093,41.153,0.601,55.213c0.411,0.665,1.053,1.154,1.801,1.381l0,0l129.621-71.034l0.003-0.003l3.557-1.946
			l0.097-0.054c0.51-0.28,0.761-0.767,0.772-1.262v2.677c0,0.023,0,0.048-0.003,0.072c-0.021,0.482-0.269,0.956-0.77,1.228
			L297.237,344.6l-0.832,0.455c-1.252-1.098-2.387-2.355-3.409-3.752c-10.976-14.988-8.918-45.766,3.409-63.3l52.505-28.771
			l3.406-1.867l75.101-41.156h0.003l2.263-1.243c0.13-0.072,0.241-0.154,0.338-0.251
			C430.316,204.429,430.455,204.045,430.455,203.665z"/>
		
			<linearGradient id="SVGID_00000088129852707223384250000011317436050962965144_" gradientUnits="userSpaceOnUse" x1="201.4706" y1="266.2942" x2="320.3343" y2="142.0004">
			<stop  offset="0" style="stop-color:#F8913E"/>
			<stop  offset="1" style="stop-color:#E67A22"/>
		</linearGradient>
		<path style="fill:url(#SVGID_00000088129852707223384250000011317436050962965144_);" d="M430.455,203.644
			c0,0.439-0.159,0.805-0.435,1.071c-0.097,0.097-0.208,0.178-0.338,0.251l-2.263,1.243h-0.003l-75.101,41.156l-3.406,1.867
			l-52.505,28.771c-12.327,17.534-14.385,48.312-3.409,63.3c1.022,1.396,2.157,2.654,3.409,3.752L82.312,279.913
			c-5.038-5.585-7.536-18.4-7.69-31.565v-0.1c-0.151-14.39,2.498-29.179,7.69-35.384l126.49-65.592l220.525,54.943
			C430.051,202.395,430.446,203.014,430.455,203.644z"/>
		
			<linearGradient id="SVGID_00000131332737025090561200000005915231234231687301_" gradientUnits="userSpaceOnUse" x1="196.7887" y1="238.0252" x2="188.9449" y2="265.1768">
			<stop  offset="0.0742" style="stop-color:#000000"/>
			<stop  offset="0.5229" style="stop-color:#FFFFFF"/>
			<stop  offset="1" style="stop-color:#000000"/>
		</linearGradient>
		<path style="opacity:0.3;fill:url(#SVGID_00000131332737025090561200000005915231234231687301_);" d="M96.248,205.637
			l-13.936,7.227c-3.231,3.862-5.477,11.048-6.676,19.394l213.725,60.205c1.735-5.313,4.095-10.266,7.044-14.46l14.741-8.077
			L96.248,205.637z"/>
		
			<linearGradient id="SVGID_00000076593541563950138230000010602504572792567989_" gradientUnits="userSpaceOnUse" x1="183.6555" y1="308.812" x2="188.4824" y2="293.1247">
			<stop  offset="0.0742" style="stop-color:#000000"/>
			<stop  offset="1" style="stop-color:#FFFFFF"/>
		</linearGradient>
		<path style="opacity:0.3;fill:url(#SVGID_00000076593541563950138230000010602504572792567989_);" d="M82.312,279.913
			l214.093,65.142c-1.252-1.098-2.387-2.355-3.409-3.752c-4.028-5.501-6.299-13.129-6.952-21.447L75.232,258.508
			C76.263,267.736,78.596,275.793,82.312,279.913z"/>
		<g style="opacity:0.8;">
			<g>
				<defs>
					<path id="SVGID_00000110460518724789659550000000451974300314127267_" d="M355.469,294.683
						c-0.199-6.368-3.782-11.781-8.85-14.346c-0.071,0.347-0.271,0.658-0.627,0.823c-2.26,1.044-4.43,2.262-6.592,3.496
						c0.453,0.707,0.322,1.774-0.729,1.967c-1.267,0.232-2.566,0.419-3.873,0.612c-0.754,0.405-1.513,0.804-2.282,1.181
						c-2.378,1.164-4.872,2.228-7.448,2.832c-0.319,1.407-0.471,2.881-0.423,4.4c0.283,9.058,7.414,16.194,15.925,15.929
						C349.083,311.314,355.753,303.748,355.469,294.683z"/>
				</defs>
				<clipPath id="SVGID_00000114772680892086126210000010714889945685693834_">
					<use xlink:href="#SVGID_00000110460518724789659550000000451974300314127267_"  style="overflow:visible;"/>
				</clipPath>
				
					<rect x="324.598" y="280.337" style="clip-path:url(#SVGID_00000114772680892086126210000010714889945685693834_);fill:#FFFFFF;" width="31.155" height="31.505"/>
				<path style="clip-path:url(#SVGID_00000114772680892086126210000010714889945685693834_);fill:#FFFFFF;" d="M356.047,295.748
					c0,8.51-6.897,15.408-15.406,15.408c-8.509,0-15.407-6.898-15.407-15.408c0-8.51,6.898-15.409,15.407-15.409
					C349.149,280.339,356.047,287.238,356.047,295.748z"/>
				
					<ellipse transform="matrix(0.0061 -1 1 0.0061 42.8216 634.5795)" style="clip-path:url(#SVGID_00000114772680892086126210000010714889945685693834_);fill:#FFFFFF;" cx="340.641" cy="295.748" rx="15.282" ry="15.28"/>
				<path style="clip-path:url(#SVGID_00000114772680892086126210000010714889945685693834_);fill:#FFFFFF;" d="M355.794,295.748
					c0,8.37-6.784,15.155-15.153,15.155c-8.369,0-15.154-6.785-15.154-15.155c0-8.37,6.785-15.156,15.154-15.156
					C349.01,280.592,355.794,287.378,355.794,295.748z"/>
				
					<ellipse transform="matrix(0.0064 -1 1 0.0064 42.7097 634.4811)" style="clip-path:url(#SVGID_00000114772680892086126210000010714889945685693834_);fill:#FFFFFF;" cx="340.641" cy="295.748" rx="15.029" ry="15.027"/>
				<path style="clip-path:url(#SVGID_00000114772680892086126210000010714889945685693834_);fill:#FEFEFE;" d="M355.541,295.748
					c0,8.23-6.671,14.902-14.9,14.902c-8.229,0-14.901-6.672-14.901-14.902c0-8.23,6.672-14.903,14.901-14.903
					C348.87,280.845,355.541,287.518,355.541,295.748z"/>
				
					<ellipse transform="matrix(0.0063 -1 1 0.0063 42.7373 634.5054)" style="clip-path:url(#SVGID_00000114772680892086126210000010714889945685693834_);fill:#FEFEFE;" cx="340.641" cy="295.748" rx="14.776" ry="14.774"/>
				<path style="clip-path:url(#SVGID_00000114772680892086126210000010714889945685693834_);fill:#FEFEFE;" d="M355.288,295.748
					c0,8.091-6.558,14.65-14.648,14.65c-8.09,0-14.648-6.559-14.648-14.65c0-8.091,6.559-14.649,14.648-14.649
					C348.73,281.099,355.288,287.657,355.288,295.748z"/>
				<path style="clip-path:url(#SVGID_00000114772680892086126210000010714889945685693834_);fill:#FEFDFD;" d="M355.162,295.748
					c0,8.021-6.502,14.523-14.522,14.523c-8.019,0-14.521-6.502-14.521-14.523c0-8.021,6.502-14.523,14.521-14.523
					C348.66,281.225,355.162,287.727,355.162,295.748z"/>
				
					<ellipse transform="matrix(0.0064 -1 1 0.0064 42.7158 634.4864)" style="clip-path:url(#SVGID_00000114772680892086126210000010714889945685693834_);fill:#FDFDFD;" cx="340.641" cy="295.748" rx="14.396" ry="14.395"/>
				<path style="clip-path:url(#SVGID_00000114772680892086126210000010714889945685693834_);fill:#FDFDFD;" d="M354.908,295.748
					c0,7.881-6.388,14.27-14.268,14.27c-7.881,0-14.268-6.389-14.268-14.27c0-7.881,6.388-14.27,14.268-14.27
					C348.52,281.478,354.908,287.867,354.908,295.748z"/>
				
					<ellipse transform="matrix(0.0063 -1 1 0.0063 42.7601 634.5254)" style="clip-path:url(#SVGID_00000114772680892086126210000010714889945685693834_);fill:#FDFCFC;" cx="340.641" cy="295.748" rx="14.144" ry="14.142"/>
				<path style="clip-path:url(#SVGID_00000114772680892086126210000010714889945685693834_);fill:#FCFCFC;" d="M354.655,295.748
					c0,7.741-6.274,14.017-14.015,14.017c-7.74,0-14.016-6.275-14.016-14.017c0-7.741,6.275-14.017,14.016-14.017
					C348.381,281.73,354.655,288.007,354.655,295.748z"/>
				
					<ellipse transform="matrix(0.006 -1 1 0.006 42.8373 634.5933)" style="clip-path:url(#SVGID_00000114772680892086126210000010714889945685693834_);fill:#FCFBFB;" cx="340.641" cy="295.748" rx="13.891" ry="13.889"/>
				<path style="clip-path:url(#SVGID_00000114772680892086126210000010714889945685693834_);fill:#FBFBFB;" d="M354.402,295.748
					c0,7.602-6.161,13.764-13.762,13.764c-7.601,0-13.763-6.162-13.763-13.764c0-7.601,6.162-13.764,13.763-13.764
					C348.241,281.984,354.402,288.147,354.402,295.748z"/>
				<path style="clip-path:url(#SVGID_00000114772680892086126210000010714889945685693834_);fill:#FBFAFB;" d="M354.276,295.748
					c0,7.531-6.105,13.637-13.636,13.637c-7.531,0-13.636-6.105-13.636-13.637c0-7.532,6.104-13.638,13.636-13.638
					C348.171,282.11,354.276,288.216,354.276,295.748z"/>
				<path style="clip-path:url(#SVGID_00000114772680892086126210000010714889945685693834_);fill:#FBFAFA;" d="M354.149,295.748
					c0,7.462-6.048,13.511-13.509,13.511c-7.461,0-13.51-6.049-13.51-13.511c0-7.462,6.049-13.511,13.51-13.511
					C348.102,282.237,354.149,288.286,354.149,295.748z"/>
				<path style="clip-path:url(#SVGID_00000114772680892086126210000010714889945685693834_);fill:#FAF9F9;" d="M354.023,295.748
					c0,7.392-5.992,13.384-13.383,13.384c-7.392,0-13.383-5.992-13.383-13.384c0-7.392,5.991-13.385,13.383-13.385
					C348.031,282.363,354.023,288.355,354.023,295.748z"/>
				
					<ellipse transform="matrix(0.0061 -1 1 0.0061 42.8216 634.5795)" style="clip-path:url(#SVGID_00000114772680892086126210000010714889945685693834_);fill:#FAF9F9;" cx="340.641" cy="295.748" rx="13.258" ry="13.256"/>
				<path style="clip-path:url(#SVGID_00000114772680892086126210000010714889945685693834_);fill:#F9F8F8;" d="M353.769,295.748
					c0,7.252-5.878,13.131-13.129,13.131c-7.252,0-13.13-5.879-13.13-13.131c0-7.252,5.878-13.132,13.13-13.132
					C347.892,282.616,353.769,288.496,353.769,295.748z"/>
				
					<ellipse transform="matrix(0.0064 -1 1 0.0064 42.7157 634.4864)" style="clip-path:url(#SVGID_00000114772680892086126210000010714889945685693834_);fill:#F9F7F8;" cx="340.641" cy="295.748" rx="13.005" ry="13.003"/>
				<path style="clip-path:url(#SVGID_00000114772680892086126210000010714889945685693834_);fill:#F8F7F7;" d="M353.517,295.748
					c0,7.112-5.765,12.878-12.876,12.878c-7.111,0-12.877-5.766-12.877-12.878c0-7.112,5.766-12.879,12.877-12.879
					C347.752,282.869,353.517,288.636,353.517,295.748z"/>
				<path style="clip-path:url(#SVGID_00000114772680892086126210000010714889945685693834_);fill:#F8F6F7;" d="M353.391,295.748
					c0,7.042-5.709,12.751-12.75,12.751c-7.042,0-12.75-5.709-12.75-12.751c0-7.043,5.708-12.752,12.75-12.752
					C347.682,282.996,353.391,288.705,353.391,295.748z"/>
				<path style="clip-path:url(#SVGID_00000114772680892086126210000010714889945685693834_);fill:#F7F5F6;" d="M353.264,295.748
					c0,6.973-5.651,12.625-12.623,12.625c-6.972,0-12.624-5.652-12.624-12.625c0-6.973,5.652-12.625,12.624-12.625
					C347.612,283.123,353.264,288.775,353.264,295.748z"/>
				<path style="clip-path:url(#SVGID_00000114772680892086126210000010714889945685693834_);fill:#F7F5F5;" d="M353.138,295.748
					c0,6.902-5.596,12.498-12.497,12.498c-6.902,0-12.497-5.596-12.497-12.498c0-6.903,5.595-12.499,12.497-12.499
					C347.542,283.249,353.138,288.845,353.138,295.748z"/>
				<path style="clip-path:url(#SVGID_00000114772680892086126210000010714889945685693834_);fill:#F6F4F5;" d="M353.011,295.748
					c0,6.833-5.538,12.372-12.37,12.372c-6.832,0-12.371-5.539-12.371-12.372c0-6.833,5.539-12.372,12.371-12.372
					C347.473,283.376,353.011,288.915,353.011,295.748z"/>
				<path style="clip-path:url(#SVGID_00000114772680892086126210000010714889945685693834_);fill:#F6F3F4;" d="M352.885,295.748
					c0,6.763-5.482,12.245-12.244,12.245c-6.763,0-12.244-5.482-12.244-12.245c0-6.764,5.481-12.246,12.244-12.246
					C347.402,283.502,352.885,288.984,352.885,295.748z"/>
				<path style="clip-path:url(#SVGID_00000114772680892086126210000010714889945685693834_);fill:#F5F3F4;" d="M352.758,295.748
					c0,6.693-5.425,12.119-12.117,12.119c-6.692,0-12.118-5.426-12.118-12.119c0-6.693,5.426-12.119,12.118-12.119
					C347.333,283.629,352.758,289.055,352.758,295.748z"/>
				<path style="clip-path:url(#SVGID_00000114772680892086126210000010714889945685693834_);fill:#F4F2F3;" d="M352.632,295.748
					c0,6.623-5.369,11.992-11.991,11.992c-6.623,0-11.991-5.369-11.991-11.992c0-6.623,5.368-11.993,11.991-11.993
					C347.263,283.755,352.632,289.125,352.632,295.748z"/>
				<path style="clip-path:url(#SVGID_00000114772680892086126210000010714889945685693834_);fill:#F4F1F2;" d="M352.505,295.748
					c0,6.553-5.311,11.865-11.864,11.865c-6.553,0-11.865-5.313-11.865-11.865c0-6.554,5.313-11.866,11.865-11.866
					C347.193,283.882,352.505,289.194,352.505,295.748z"/>
				<path style="clip-path:url(#SVGID_00000114772680892086126210000010714889945685693834_);fill:#F3F0F1;" d="M352.378,295.748
					c0,6.483-5.255,11.739-11.737,11.739c-6.483,0-11.738-5.256-11.738-11.739c0-6.483,5.255-11.739,11.738-11.739
					C347.123,284.009,352.378,289.265,352.378,295.748z"/>
				<path style="clip-path:url(#SVGID_00000114772680892086126210000010714889945685693834_);fill:#F2F0F1;" d="M352.252,295.748
					c0,6.413-5.198,11.612-11.611,11.612c-6.413,0-11.611-5.199-11.611-11.612c0-6.414,5.198-11.613,11.611-11.613
					C347.054,284.135,352.252,289.334,352.252,295.748z"/>
				<path style="clip-path:url(#SVGID_00000114772680892086126210000010714889945685693834_);fill:#F2EFF0;" d="M352.125,295.748
					c0,6.344-5.142,11.486-11.484,11.486c-6.343,0-11.485-5.143-11.485-11.486c0-6.344,5.143-11.486,11.485-11.486
					C346.983,284.262,352.125,289.404,352.125,295.748z"/>
				<path style="clip-path:url(#SVGID_00000114772680892086126210000010714889945685693834_);fill:#F1EEEF;" d="M351.999,295.748
					c0,6.274-5.086,11.359-11.358,11.359c-6.273,0-11.358-5.086-11.358-11.359c0-6.274,5.085-11.36,11.358-11.36
					C346.913,284.388,351.999,289.474,351.999,295.748z"/>
				<path style="clip-path:url(#SVGID_00000114772680892086126210000010714889945685693834_);fill:#F1EDEF;" d="M351.872,295.748
					c0,6.204-5.028,11.233-11.232,11.233c-6.203,0-11.232-5.029-11.232-11.233c0-6.204,5.029-11.233,11.232-11.233
					C346.844,284.515,351.872,289.544,351.872,295.748z"/>
				<path style="clip-path:url(#SVGID_00000114772680892086126210000010714889945685693834_);fill:#F0ECEE;" d="M351.746,295.748
					c0,6.134-4.973,11.107-11.105,11.107c-6.134,0-11.105-4.973-11.105-11.107c0-6.135,4.972-11.107,11.105-11.107
					C346.773,284.641,351.746,289.613,351.746,295.748z"/>
				<path style="clip-path:url(#SVGID_00000114772680892086126210000010714889945685693834_);fill:#EFECED;" d="M351.619,295.748
					c0,6.065-4.915,10.98-10.979,10.98c-6.063,0-10.979-4.916-10.979-10.98c0-6.064,4.916-10.98,10.979-10.98
					C346.704,284.768,351.619,289.684,351.619,295.748z"/>
				
					<ellipse transform="matrix(0.0119 -0.9999 0.9999 0.0119 40.8604 632.8456)" style="clip-path:url(#SVGID_00000114772680892086126210000010714889945685693834_);fill:#EFEBEC;" cx="340.641" cy="295.748" rx="10.854" ry="10.853"/>
				<path style="clip-path:url(#SVGID_00000114772680892086126210000010714889945685693834_);fill:#EEEAEB;" d="M351.366,295.748
					c0,5.924-4.802,10.727-10.726,10.727c-5.924,0-10.726-4.803-10.726-10.727c0-5.925,4.803-10.727,10.726-10.727
					C346.564,285.021,351.366,289.823,351.366,295.748z"/>
				
					<ellipse transform="matrix(0.0126 -0.9999 0.9999 0.0126 40.6206 632.6321)" style="clip-path:url(#SVGID_00000114772680892086126210000010714889945685693834_);fill:#EDE9EB;" cx="340.641" cy="295.748" rx="10.601" ry="10.6"/>
				<path style="clip-path:url(#SVGID_00000114772680892086126210000010714889945685693834_);fill:#ECE8EA;" d="M351.113,295.748
					c0,5.784-4.689,10.474-10.473,10.474c-5.784,0-10.473-4.69-10.473-10.474c0-5.785,4.688-10.475,10.473-10.475
					C346.425,285.273,351.113,289.963,351.113,295.748z"/>
				<path style="clip-path:url(#SVGID_00000114772680892086126210000010714889945685693834_);fill:#ECE7E9;" d="M350.986,295.748
					c0,5.715-4.632,10.348-10.346,10.348c-5.715,0-10.347-4.633-10.347-10.348c0-5.715,4.632-10.348,10.347-10.348
					C346.354,285.4,350.986,290.033,350.986,295.748z"/>
				<path style="clip-path:url(#SVGID_00000114772680892086126210000010714889945685693834_);fill:#EBE6E8;" d="M350.86,295.748
					c0,5.645-4.575,10.221-10.22,10.221c-5.644,0-10.22-4.576-10.22-10.221c0-5.645,4.575-10.222,10.22-10.222
					C346.285,285.526,350.86,290.103,350.86,295.748z"/>
				<path style="clip-path:url(#SVGID_00000114772680892086126210000010714889945685693834_);fill:#EAE5E7;" d="M350.733,295.748
					c0,5.575-4.519,10.095-10.093,10.095c-5.574,0-10.094-4.52-10.094-10.095c0-5.575,4.52-10.095,10.094-10.095
					C346.215,285.653,350.733,290.173,350.733,295.748z"/>
				<path style="clip-path:url(#SVGID_00000114772680892086126210000010714889945685693834_);fill:#E9E5E6;" d="M350.607,295.748
					c0,5.505-4.463,9.968-9.967,9.968c-5.505,0-9.967-4.463-9.967-9.968c0-5.506,4.462-9.969,9.967-9.969
					C346.144,285.779,350.607,290.242,350.607,295.748z"/>
				<path style="clip-path:url(#SVGID_00000114772680892086126210000010714889945685693834_);fill:#E9E4E6;" d="M350.48,295.748
					c0,5.436-4.405,9.842-9.84,9.842c-5.434,0-9.841-4.406-9.841-9.842c0-5.435,4.406-9.842,9.841-9.842
					C346.075,285.906,350.48,290.313,350.48,295.748z"/>
				
					<ellipse transform="matrix(0.0119 -0.9999 0.9999 0.0119 40.8603 632.8455)" style="clip-path:url(#SVGID_00000114772680892086126210000010714889945685693834_);fill:#E8E3E5;" cx="340.641" cy="295.748" rx="9.715" ry="9.714"/>
				<path style="clip-path:url(#SVGID_00000114772680892086126210000010714889945685693834_);fill:#E7E2E4;" d="M350.227,295.748
					c0,5.295-4.292,9.588-9.587,9.588c-5.295,0-9.588-4.293-9.588-9.588c0-5.296,4.293-9.589,9.588-9.589
					C345.935,286.159,350.227,290.452,350.227,295.748z"/>
				
					<ellipse transform="matrix(0.0119 -0.9999 0.9999 0.0119 40.8603 632.8455)" style="clip-path:url(#SVGID_00000114772680892086126210000010714889945685693834_);fill:#E6E1E3;" cx="340.641" cy="295.748" rx="9.462" ry="9.461"/>
				<path style="clip-path:url(#SVGID_00000114772680892086126210000010714889945685693834_);fill:#E6E0E2;" d="M349.975,295.748
					c0,5.155-4.179,9.335-9.334,9.335c-5.155,0-9.334-4.18-9.334-9.335c0-5.156,4.179-9.336,9.334-9.336
					C345.796,286.412,349.975,290.592,349.975,295.748z"/>
				
					<ellipse transform="matrix(0.0128 -0.9999 0.9999 0.0128 40.552 632.571)" style="clip-path:url(#SVGID_00000114772680892086126210000010714889945685693834_);fill:#E5DFE1;" cx="340.641" cy="295.748" rx="9.209" ry="9.208"/>
				<path style="clip-path:url(#SVGID_00000114772680892086126210000010714889945685693834_);fill:#E4DEE0;" d="M349.722,295.748
					c0,5.016-4.065,9.082-9.081,9.082c-5.016,0-9.081-4.066-9.081-9.082c0-5.017,4.065-9.083,9.081-9.083
					C345.656,286.665,349.722,290.731,349.722,295.748z"/>
				<path style="clip-path:url(#SVGID_00000114772680892086126210000010714889945685693834_);fill:#E3DDDF;" d="M349.595,295.748
					c0,4.946-4.009,8.956-8.954,8.956c-4.945,0-8.955-4.01-8.955-8.956c0-4.946,4.01-8.956,8.955-8.956
					C345.586,286.792,349.595,290.802,349.595,295.748z"/>
				<path style="clip-path:url(#SVGID_00000114772680892086126210000010714889945685693834_);fill:#E2DCDE;" d="M349.469,295.748
					c0,4.876-3.953,8.829-8.828,8.829c-4.876,0-8.828-3.953-8.828-8.829c0-4.877,3.952-8.83,8.828-8.83
					C345.516,286.918,349.469,290.871,349.469,295.748z"/>
				<path style="clip-path:url(#SVGID_00000114772680892086126210000010714889945685693834_);fill:#E1DBDD;" d="M349.342,295.748
					c0,4.807-3.895,8.702-8.701,8.702c-4.806,0-8.702-3.896-8.702-8.702c0-4.807,3.897-8.703,8.702-8.703
					C345.446,287.045,349.342,290.941,349.342,295.748z"/>
				
					<ellipse transform="matrix(0.0128 -0.9999 0.9999 0.0128 40.5519 632.571)" style="clip-path:url(#SVGID_00000114772680892086126210000010714889945685693834_);fill:#E1DADC;" cx="340.641" cy="295.748" rx="8.576" ry="8.575"/>
				<path style="clip-path:url(#SVGID_00000114772680892086126210000010714889945685693834_);fill:#E0D9DB;" d="M349.089,295.748
					c0,4.666-3.782,8.449-8.448,8.449c-4.666,0-8.449-3.783-8.449-8.449c0-4.667,3.783-8.45,8.449-8.45
					C345.307,287.298,349.089,291.081,349.089,295.748z"/>
				
					<ellipse transform="matrix(0.0119 -0.9999 0.9999 0.0119 40.8602 632.8454)" style="clip-path:url(#SVGID_00000114772680892086126210000010714889945685693834_);fill:#DFD7DA;" cx="340.641" cy="295.748" rx="8.323" ry="8.322"/>
				<path style="clip-path:url(#SVGID_00000114772680892086126210000010714889945685693834_);fill:#DED6D9;" d="M348.836,295.748
					c0,4.526-3.669,8.196-8.195,8.196c-4.526,0-8.196-3.67-8.196-8.196c0-4.527,3.67-8.197,8.196-8.197
					C345.167,287.551,348.836,291.221,348.836,295.748z"/>
				<path style="clip-path:url(#SVGID_00000114772680892086126210000010714889945685693834_);fill:#DDD5D8;" d="M348.709,295.748
					c0,4.457-3.612,8.07-8.068,8.07c-4.457,0-8.069-3.613-8.069-8.07c0-4.457,3.612-8.07,8.069-8.07
					C345.097,287.678,348.709,291.291,348.709,295.748z"/>
				<path style="clip-path:url(#SVGID_00000114772680892086126210000010714889945685693834_);fill:#DCD4D7;" d="M348.583,295.748
					c0,4.387-3.556,7.943-7.942,7.943c-4.387,0-7.943-3.557-7.943-7.943c0-4.388,3.557-7.943,7.943-7.943
					C345.027,287.805,348.583,291.36,348.583,295.748z"/>
				<path style="clip-path:url(#SVGID_00000114772680892086126210000010714889945685693834_);fill:#DBD3D6;" d="M348.456,295.748
					c0,4.317-3.499,7.817-7.816,7.817c-4.317,0-7.816-3.499-7.816-7.817c0-4.317,3.499-7.817,7.816-7.817
					C344.957,287.931,348.456,291.431,348.456,295.748z"/>
				
					<ellipse transform="matrix(0.0119 -0.9999 0.9999 0.0119 40.8602 632.8453)" style="clip-path:url(#SVGID_00000114772680892086126210000010714889945685693834_);fill:#DAD2D5;" cx="340.641" cy="295.748" rx="7.69" ry="7.689"/>
				<path style="clip-path:url(#SVGID_00000114772680892086126210000010714889945685693834_);fill:#D9D1D4;" d="M348.203,295.748
					c0,4.178-3.386,7.564-7.563,7.564c-4.177,0-7.563-3.386-7.563-7.564c0-4.178,3.387-7.564,7.563-7.564
					C344.817,288.184,348.203,291.57,348.203,295.748z"/>
				
					<circle style="clip-path:url(#SVGID_00000114772680892086126210000010714889945685693834_);fill:#D9D0D3;" cx="340.641" cy="295.748" r="7.437"/>
				<path style="clip-path:url(#SVGID_00000114772680892086126210000010714889945685693834_);fill:#D8CFD2;" d="M347.95,295.748
					c0,4.037-3.272,7.311-7.31,7.311c-4.037,0-7.31-3.273-7.31-7.311c0-4.038,3.273-7.311,7.31-7.311
					C344.678,288.436,347.95,291.71,347.95,295.748z"/>
				<path style="clip-path:url(#SVGID_00000114772680892086126210000010714889945685693834_);fill:#D7CDD1;" d="M347.824,295.748
					c0,3.968-3.217,7.185-7.184,7.185c-3.968,0-7.184-3.217-7.184-7.185c0-3.968,3.216-7.184,7.184-7.184
					C344.607,288.564,347.824,291.78,347.824,295.748z"/>
				<path style="clip-path:url(#SVGID_00000114772680892086126210000010714889945685693834_);fill:#D6CCD0;" d="M347.697,295.748
					c0,3.898-3.159,7.058-7.057,7.058c-3.897,0-7.058-3.16-7.058-7.058c0-3.898,3.16-7.058,7.058-7.058
					C344.538,288.69,347.697,291.85,347.697,295.748z"/>
				<path style="clip-path:url(#SVGID_00000114772680892086126210000010714889945685693834_);fill:#D5CBCF;" d="M347.571,295.748
					c0,3.828-3.104,6.932-6.931,6.932c-3.828,0-6.931-3.103-6.931-6.932c0-3.828,3.102-6.932,6.931-6.932
					C344.468,288.816,347.571,291.92,347.571,295.748z"/>
				<path style="clip-path:url(#SVGID_00000114772680892086126210000010714889945685693834_);fill:#D4CACE;" d="M347.444,295.748
					c0,3.758-3.046,6.805-6.804,6.805c-3.758,0-6.805-3.047-6.805-6.805c0-3.759,3.047-6.805,6.805-6.805
					C344.398,288.943,347.444,291.989,347.444,295.748z"/>
				<path style="clip-path:url(#SVGID_00000114772680892086126210000010714889945685693834_);fill:#D3C9CD;" d="M347.318,295.748
					c0,3.689-2.99,6.678-6.678,6.678c-3.688,0-6.678-2.989-6.678-6.678c0-3.688,2.989-6.679,6.678-6.679
					C344.328,289.069,347.318,292.06,347.318,295.748z"/>
				<path style="clip-path:url(#SVGID_00000114772680892086126210000010714889945685693834_);fill:#D2C8CB;" d="M347.191,295.748
					c0,3.618-2.933,6.552-6.551,6.552c-3.618,0-6.551-2.934-6.551-6.552c0-3.619,2.933-6.552,6.551-6.552
					C344.259,289.196,347.191,292.129,347.191,295.748z"/>
				<path style="clip-path:url(#SVGID_00000114772680892086126210000010714889945685693834_);fill:#D1C6CA;" d="M347.064,295.748
					c0,3.549-2.876,6.425-6.424,6.425c-3.549,0-6.425-2.876-6.425-6.425c0-3.549,2.876-6.426,6.425-6.426
					C344.188,289.322,347.064,292.199,347.064,295.748z"/>
				<path style="clip-path:url(#SVGID_00000114772680892086126210000010714889945685693834_);fill:#D0C5C9;" d="M346.938,295.748
					c0,3.479-2.819,6.299-6.298,6.299c-3.478,0-6.298-2.82-6.298-6.299c0-3.478,2.819-6.299,6.298-6.299
					C344.119,289.449,346.938,292.27,346.938,295.748z"/>
				<path style="clip-path:url(#SVGID_00000114772680892086126210000010714889945685693834_);fill:#CFC4C8;" d="M346.811,295.748
					c0,3.408-2.763,6.172-6.171,6.172c-3.408,0-6.172-2.764-6.172-6.172c0-3.409,2.764-6.173,6.172-6.173
					C344.049,289.575,346.811,292.339,346.811,295.748z"/>
				<path style="clip-path:url(#SVGID_00000114772680892086126210000010714889945685693834_);fill:#CEC3C7;" d="M346.685,295.748
					c0,3.339-2.706,6.045-6.045,6.045c-3.339,0-6.045-2.706-6.045-6.045c0-3.339,2.706-6.046,6.045-6.046
					C343.979,289.702,346.685,292.409,346.685,295.748z"/>
				<path style="clip-path:url(#SVGID_00000114772680892086126210000010714889945685693834_);fill:#CDC1C6;" d="M346.559,295.748
					c0,3.269-2.649,5.919-5.918,5.919c-3.268,0-5.919-2.65-5.919-5.919c0-3.27,2.65-5.919,5.919-5.919
					C343.909,289.829,346.559,292.478,346.559,295.748z"/>
				<path style="clip-path:url(#SVGID_00000114772680892086126210000010714889945685693834_);fill:#CCC0C5;" d="M346.433,295.748
					c0,3.199-2.594,5.792-5.792,5.792c-3.199,0-5.792-2.593-5.792-5.792c0-3.199,2.593-5.793,5.792-5.793
					C343.839,289.955,346.433,292.549,346.433,295.748z"/>
				<path style="clip-path:url(#SVGID_00000114772680892086126210000010714889945685693834_);fill:#CBBFC3;" d="M346.306,295.748
					c0,3.129-2.536,5.666-5.665,5.666c-3.129,0-5.666-2.537-5.666-5.666c0-3.13,2.537-5.666,5.666-5.666
					C343.769,290.082,346.306,292.618,346.306,295.748z"/>
				<path style="clip-path:url(#SVGID_00000114772680892086126210000010714889945685693834_);fill:#CABEC2;" d="M346.18,295.748
					c0,3.06-2.48,5.539-5.539,5.539c-3.059,0-5.539-2.48-5.539-5.539c0-3.059,2.479-5.54,5.539-5.54
					C343.699,290.208,346.18,292.689,346.18,295.748z"/>
				<path style="clip-path:url(#SVGID_00000114772680892086126210000010714889945685693834_);fill:#C9BCC1;" d="M346.053,295.748
					c0,2.989-2.423,5.413-5.412,5.413c-2.989,0-5.412-2.424-5.412-5.413c0-2.99,2.423-5.413,5.412-5.413
					C343.63,290.335,346.053,292.758,346.053,295.748z"/>
				<path style="clip-path:url(#SVGID_00000114772680892086126210000010714889945685693834_);fill:#C8BBC0;" d="M345.926,295.748
					c0,2.92-2.366,5.286-5.285,5.286c-2.92,0-5.286-2.366-5.286-5.286c0-2.92,2.366-5.287,5.286-5.287
					C343.56,290.461,345.926,292.828,345.926,295.748z"/>
				<path style="clip-path:url(#SVGID_00000114772680892086126210000010714889945685693834_);fill:#C7BABF;" d="M345.8,295.748
					c0,2.85-2.31,5.16-5.159,5.16c-2.85,0-5.159-2.311-5.159-5.16c0-2.85,2.31-5.16,5.159-5.16
					C343.49,290.588,345.8,292.898,345.8,295.748z"/>
				<path style="clip-path:url(#SVGID_00000114772680892086126210000010714889945685693834_);fill:#C6B9BE;" d="M345.673,295.748
					c0,2.779-2.253,5.033-5.032,5.033c-2.779,0-5.033-2.254-5.033-5.033c0-2.78,2.254-5.033,5.033-5.033
					C343.42,290.715,345.673,292.968,345.673,295.748z"/>
				<path style="clip-path:url(#SVGID_00000114772680892086126210000010714889945685693834_);fill:#C5B7BC;" d="M345.547,295.748
					c0,2.71-2.197,4.906-4.906,4.906c-2.71,0-4.906-2.196-4.906-4.906c0-2.71,2.196-4.907,4.906-4.907
					C343.35,290.841,345.547,293.038,345.547,295.748z"/>
				<path style="clip-path:url(#SVGID_00000114772680892086126210000010714889945685693834_);fill:#C4B6BB;" d="M345.42,295.748
					c0,2.64-2.14,4.78-4.779,4.78c-2.64,0-4.78-2.141-4.78-4.78c0-2.641,2.141-4.78,4.78-4.78
					C343.28,290.968,345.42,293.107,345.42,295.748z"/>
				<path style="clip-path:url(#SVGID_00000114772680892086126210000010714889945685693834_);fill:#C2B5BA;" d="M345.294,295.748
					c0,2.57-2.084,4.653-4.653,4.653c-2.57,0-4.653-2.083-4.653-4.653c0-2.57,2.083-4.654,4.653-4.654
					C343.21,291.094,345.294,293.178,345.294,295.748z"/>
				<path style="clip-path:url(#SVGID_00000114772680892086126210000010714889945685693834_);fill:#C1B3B9;" d="M345.167,295.748
					c0,2.5-2.026,4.527-4.526,4.527s-4.527-2.027-4.527-4.527c0-2.501,2.027-4.527,4.527-4.527S345.167,293.247,345.167,295.748z"/>
				<path style="clip-path:url(#SVGID_00000114772680892086126210000010714889945685693834_);fill:#C0B2B7;" d="M345.041,295.748
					c0,2.431-1.971,4.4-4.4,4.4c-2.431,0-4.4-1.97-4.4-4.4c0-2.431,1.97-4.401,4.4-4.401
					C343.07,291.347,345.041,293.317,345.041,295.748z"/>
				<path style="clip-path:url(#SVGID_00000114772680892086126210000010714889945685693834_);fill:#BFB1B6;" d="M344.914,295.748
					c0,2.36-1.913,4.275-4.274,4.275c-2.36,0-4.273-1.914-4.273-4.275c0-2.361,1.913-4.274,4.273-4.274
					C343.001,291.474,344.914,293.387,344.914,295.748z"/>
				<path style="clip-path:url(#SVGID_00000114772680892086126210000010714889945685693834_);fill:#BEAFB5;" d="M344.788,295.748
					c0,2.291-1.857,4.148-4.148,4.148c-2.291,0-4.147-1.856-4.147-4.148c0-2.291,1.856-4.148,4.147-4.148
					C342.931,291.6,344.788,293.457,344.788,295.748z"/>
				<path style="clip-path:url(#SVGID_00000114772680892086126210000010714889945685693834_);fill:#BDAEB4;" d="M344.661,295.748
					c0,2.221-1.8,4.022-4.021,4.022c-2.221,0-4.02-1.801-4.02-4.022c0-2.221,1.8-4.021,4.02-4.021
					C342.861,291.727,344.661,293.527,344.661,295.748z"/>
				<path style="clip-path:url(#SVGID_00000114772680892086126210000010714889945685693834_);fill:#BCACB2;" d="M344.534,295.748
					c0,2.15-1.743,3.895-3.894,3.895c-2.151,0-3.894-1.744-3.894-3.895c0-2.151,1.743-3.895,3.894-3.895
					C342.791,291.853,344.534,293.597,344.534,295.748z"/>
				<path style="clip-path:url(#SVGID_00000114772680892086126210000010714889945685693834_);fill:#BBABB1;" d="M344.408,295.748
					c0,2.081-1.686,3.768-3.768,3.768c-2.081,0-3.768-1.686-3.768-3.768c0-2.081,1.687-3.768,3.768-3.768
					C342.722,291.979,344.408,293.667,344.408,295.748z"/>
				<path style="clip-path:url(#SVGID_00000114772680892086126210000010714889945685693834_);fill:#BAAAB0;" d="M344.281,295.748
					c0,2.011-1.63,3.642-3.641,3.642c-2.011,0-3.642-1.631-3.642-3.642c0-2.012,1.631-3.642,3.642-3.642
					C342.651,292.106,344.281,293.736,344.281,295.748z"/>
				<path style="clip-path:url(#SVGID_00000114772680892086126210000010714889945685693834_);fill:#B8A8AE;" d="M344.155,295.748
					c0,1.942-1.574,3.515-3.515,3.515c-1.941,0-3.515-1.573-3.515-3.515c0-1.941,1.573-3.516,3.515-3.516
					C342.581,292.232,344.155,293.807,344.155,295.748z"/>
				<path style="clip-path:url(#SVGID_00000114772680892086126210000010714889945685693834_);fill:#B7A7AD;" d="M344.028,295.748
					c0,1.871-1.517,3.389-3.388,3.389c-1.871,0-3.389-1.518-3.389-3.389c0-1.872,1.517-3.389,3.389-3.389
					C342.512,292.359,344.028,293.876,344.028,295.748z"/>
				<path style="clip-path:url(#SVGID_00000114772680892086126210000010714889945685693834_);fill:#B6A6AC;" d="M343.902,295.748
					c0,1.802-1.461,3.262-3.262,3.262c-1.802,0-3.262-1.46-3.262-3.262c0-1.802,1.46-3.263,3.262-3.263
					C342.441,292.485,343.902,293.946,343.902,295.748z"/>
				<path style="clip-path:url(#SVGID_00000114772680892086126210000010714889945685693834_);fill:#B5A4AB;" d="M343.775,295.748
					c0,1.732-1.403,3.136-3.135,3.136c-1.731,0-3.136-1.404-3.136-3.136c0-1.732,1.404-3.136,3.136-3.136
					C342.372,292.612,343.775,294.016,343.775,295.748z"/>
				<path style="clip-path:url(#SVGID_00000114772680892086126210000010714889945685693834_);fill:#B4A3A9;" d="M343.649,295.748
					c0,1.662-1.348,3.009-3.009,3.009c-1.662,0-3.009-1.347-3.009-3.009c0-1.662,1.347-3.01,3.009-3.01
					C342.302,292.738,343.649,294.086,343.649,295.748z"/>
				<path style="clip-path:url(#SVGID_00000114772680892086126210000010714889945685693834_);fill:#B3A1A8;" d="M343.522,295.748
					c0,1.592-1.29,2.882-2.882,2.882c-1.592,0-2.883-1.29-2.883-2.882c0-1.592,1.291-2.883,2.883-2.883
					C342.232,292.865,343.522,294.156,343.522,295.748z"/>
				<path style="clip-path:url(#SVGID_00000114772680892086126210000010714889945685693834_);fill:#B2A0A7;" d="M343.396,295.748
					c0,1.522-1.234,2.756-2.756,2.756c-1.522,0-2.756-1.234-2.756-2.756c0-1.522,1.233-2.756,2.756-2.756
					C342.162,292.992,343.396,294.226,343.396,295.748z"/>
				<path style="clip-path:url(#SVGID_00000114772680892086126210000010714889945685693834_);fill:#B09EA5;" d="M343.269,295.748
					c0,1.452-1.177,2.629-2.629,2.629c-1.452,0-2.629-1.177-2.629-2.629c0-1.452,1.177-2.63,2.629-2.63
					C342.093,293.118,343.269,294.296,343.269,295.748z"/>
				<path style="clip-path:url(#SVGID_00000114772680892086126210000010714889945685693834_);fill:#AF9DA4;" d="M343.143,295.748
					c0,1.382-1.12,2.503-2.502,2.503c-1.383,0-2.503-1.121-2.503-2.503c0-1.383,1.12-2.503,2.503-2.503
					C342.022,293.245,343.143,294.365,343.143,295.748z"/>
				<path style="clip-path:url(#SVGID_00000114772680892086126210000010714889945685693834_);fill:#AE9BA3;" d="M343.017,295.748
					c0,1.313-1.064,2.376-2.376,2.376s-2.376-1.064-2.376-2.376s1.063-2.377,2.376-2.377S343.017,294.435,343.017,295.748z"/>
				<path style="clip-path:url(#SVGID_00000114772680892086126210000010714889945685693834_);fill:#AD9AA1;" d="M342.89,295.748
					c0,1.242-1.007,2.25-2.249,2.25c-1.242,0-2.25-1.008-2.25-2.25c0-1.243,1.008-2.25,2.25-2.25
					C341.883,293.498,342.89,294.505,342.89,295.748z"/>
				<path style="clip-path:url(#SVGID_00000114772680892086126210000010714889945685693834_);fill:#AC99A0;" d="M342.764,295.748
					c0,1.173-0.95,2.123-2.123,2.123c-1.173,0-2.123-0.95-2.123-2.123c0-1.173,0.95-2.124,2.123-2.124
					C341.813,293.624,342.764,294.575,342.764,295.748z"/>
				<path style="clip-path:url(#SVGID_00000114772680892086126210000010714889945685693834_);fill:#AA979E;" d="M342.637,295.748
					c0,1.103-0.894,1.996-1.996,1.996c-1.102,0-1.997-0.894-1.997-1.996c0-1.102,0.895-1.997,1.997-1.997
					C341.743,293.751,342.637,294.646,342.637,295.748z"/>
				<path style="clip-path:url(#SVGID_00000114772680892086126210000010714889945685693834_);fill:#A9969D;" d="M342.511,295.748
					c0,1.032-0.838,1.87-1.87,1.87c-1.033,0-1.87-0.838-1.87-1.87c0-1.033,0.837-1.87,1.87-1.87
					C341.673,293.878,342.511,294.715,342.511,295.748z"/>
				<path style="clip-path:url(#SVGID_00000114772680892086126210000010714889945685693834_);fill:#A8949C;" d="M342.384,295.748
					c0,0.963-0.78,1.743-1.743,1.743c-0.963,0-1.744-0.78-1.744-1.743c0-0.963,0.781-1.744,1.744-1.744
					C341.603,294.004,342.384,294.785,342.384,295.748z"/>
				<path style="clip-path:url(#SVGID_00000114772680892086126210000010714889945685693834_);fill:#A7939A;" d="M342.258,295.748
					c0,0.893-0.725,1.617-1.617,1.617c-0.893,0-1.617-0.725-1.617-1.617c0-0.893,0.724-1.617,1.617-1.617
					C341.533,294.131,342.258,294.854,342.258,295.748z"/>
				<path style="clip-path:url(#SVGID_00000114772680892086126210000010714889945685693834_);fill:#A59199;" d="M342.131,295.748
					c0,0.823-0.667,1.49-1.49,1.49c-0.823,0-1.49-0.667-1.49-1.49c0-0.823,0.667-1.491,1.49-1.491
					C341.464,294.257,342.131,294.925,342.131,295.748z"/>
				<path style="clip-path:url(#SVGID_00000114772680892086126210000010714889945685693834_);fill:#A49097;" d="M342.004,295.748
					c0,0.753-0.61,1.364-1.363,1.364c-0.754,0-1.364-0.611-1.364-1.364c0-0.754,0.61-1.364,1.364-1.364
					C341.394,294.384,342.004,294.994,342.004,295.748z"/>
				<path style="clip-path:url(#SVGID_00000114772680892086126210000010714889945685693834_);fill:#A38E96;" d="M341.878,295.748
					c0,0.684-0.554,1.237-1.237,1.237c-0.684,0-1.237-0.554-1.237-1.237c0-0.683,0.554-1.238,1.237-1.238
					C341.324,294.51,341.878,295.065,341.878,295.748z"/>
			</g>
		</g>
		
			<linearGradient id="SVGID_00000003810164300156971790000012726081112677587090_" gradientUnits="userSpaceOnUse" x1="348.1276" y1="309.1985" x2="335.2406" y2="281.6051">
			<stop  offset="0.0134" style="stop-color:#E90D00"/>
			<stop  offset="0.5462" style="stop-color:#FF5952"/>
			<stop  offset="0.5884" style="stop-color:#FD534B"/>
			<stop  offset="0.65" style="stop-color:#F84038"/>
			<stop  offset="0.723" style="stop-color:#EF2318"/>
			<stop  offset="0.7691" style="stop-color:#E90D00"/>
			<stop  offset="1" style="stop-color:#B30900"/>
		</linearGradient>
		<path style="fill:url(#SVGID_00000003810164300156971790000012726081112677587090_);" d="M323.357,291.579l22.114-11.907
			c0,0,8.506,2.551,10.49,11.907c1.985,9.356,0,18.146,0,18.146l-8.222-7.939l-8.254,15.31c0,0-2.684-17.54-6.43-20.961
			C329.311,292.713,323.357,291.579,323.357,291.579z"/>
	</g>
	
		<radialGradient id="SVGID_00000016785412790985332430000014545424824118578833_" cx="6967.1646" cy="-41584.5703" r="181.8613" gradientTransform="matrix(0.8007 -0.2064 0.082 0.3183 -1890.5983 14888.166)" gradientUnits="userSpaceOnUse">
		<stop  offset="0.0721" style="stop-color:#A38E96"/>
		<stop  offset="0.3251" style="stop-color:#B9A9AF"/>
		<stop  offset="0.8654" style="stop-color:#F0EDEE"/>
		<stop  offset="1" style="stop-color:#FFFFFF"/>
	</radialGradient>
	<path style="opacity:0.9;fill:url(#SVGID_00000016785412790985332430000014545424824118578833_);" d="M423.81,176.213
		c8.235,31.947-50.328,74.666-130.827,95.4c-80.479,20.744-152.411,11.649-160.64-20.273
		c-8.233-31.941,50.344-74.659,130.823-95.404C343.661,135.189,415.579,144.28,423.81,176.213z"/>
	
		<radialGradient id="SVGID_00000023273402353541510510000005044177811929694106_" cx="7009.812" cy="-41743.8633" r="181.869" gradientTransform="matrix(0.6938 -0.4143 0.1265 0.2118 684.6954 11967.4707)" gradientUnits="userSpaceOnUse">
		<stop  offset="0.0721" style="stop-color:#A38E96"/>
		<stop  offset="0.3251" style="stop-color:#B9A9AF"/>
		<stop  offset="0.8654" style="stop-color:#F0EDEE"/>
		<stop  offset="1" style="stop-color:#FFFFFF"/>
	</radialGradient>
	<path style="opacity:0.9;fill:url(#SVGID_00000023273402353541510510000005044177811929694106_);" d="M393.794,146.541
		c12.695,21.259-33.546,72.257-103.307,113.903c-69.741,41.647-136.585,58.171-149.271,36.928
		c-12.693-21.255,33.562-72.257,103.303-113.904C314.275,141.813,381.104,125.291,393.794,146.541z"/>
	
		<radialGradient id="SVGID_00000054232084579009737240000007351406858819603094_" cx="7158.0493" cy="-41743.6055" r="177.0068" gradientTransform="matrix(0.5498 -0.0759 0.0624 0.4521 -1135.347 19621.123)" gradientUnits="userSpaceOnUse">
		<stop  offset="0.0721" style="stop-color:#A38E96"/>
		<stop  offset="0.3251" style="stop-color:#B9A9AF"/>
		<stop  offset="0.8654" style="stop-color:#F0EDEE"/>
		<stop  offset="1" style="stop-color:#FFFFFF"/>
	</radialGradient>
	<path style="opacity:0.9;fill:url(#SVGID_00000054232084579009737240000007351406858819603094_);" d="M292.754,192.101
		c6.096,44.163-32.566,85.988-86.371,93.395c-53.791,7.425-102.35-22.377-108.441-66.505c-6.095-44.154,32.578-85.976,86.369-93.4
		C238.112,118.164,286.661,147.958,292.754,192.101z"/>
	<g>
		<path style="fill:#22DD3B;" d="M95.631,212.841l210.781-54.107l126.071,41.357l-240.502,78.675L95.052,217.66
			C93.132,216.45,93.499,213.388,95.631,212.841z"/>
		
			<linearGradient id="SVGID_00000166668363658129738030000014345143929609462970_" gradientUnits="userSpaceOnUse" x1="93.0475" y1="236.7511" x2="196.7828" y2="236.7511">
			<stop  offset="0" style="stop-color:#22DD3B"/>
			<stop  offset="1" style="stop-color:#1CB831"/>
		</linearGradient>
		<path style="fill:url(#SVGID_00000166668363658129738030000014345143929609462970_);" d="M93.091,211.541
			c0.207,1.182,0.209,2.025,3.793,4.176L186,272c0.377,0.146,6,3,6.416,2.865c9.859-9.424,1.338-36.165-8.911-44.646l-45.013-28.383
			l-5.086-3.203l-38.527,9.895C93.505,208.878,92.869,210.268,93.091,211.541z"/>
		
			<linearGradient id="SVGID_00000067219452556061374900000007470354393939122623_" gradientUnits="userSpaceOnUse" x1="332.8134" y1="164.8112" x2="307.977" y2="135.4591" gradientTransform="matrix(-0.788 0.1376 0.172 0.9851 370.2747 31.5998)">
			<stop  offset="0.2523" style="stop-color:#F7E7D0"/>
			<stop  offset="0.3745" style="stop-color:#F5E3C9"/>
			<stop  offset="0.5527" style="stop-color:#F0D7B6"/>
			<stop  offset="0.7652" style="stop-color:#E8C396"/>
			<stop  offset="1" style="stop-color:#DDA86A"/>
		</linearGradient>
		<path style="fill:url(#SVGID_00000067219452556061374900000007470354393939122623_);" d="M96.076,211.52l97.456,61.773
			c0.293-0.527,0.549-1.11,0.769-1.737c3.559-10.112-1.516-32.598-10.053-40.681c-0.082-0.077-0.164-0.152-0.246-0.227
			c-0.082-0.074-0.163-0.148-0.247-0.22c-0.085-0.074-0.165-0.143-0.249-0.211l-49.002-32.583l-39.748-26.151
			C99.035,185.5,96.925,198.958,96.076,211.52z"/>
		
			<linearGradient id="SVGID_00000135690736199093726730000012978893121714018206_" gradientUnits="userSpaceOnUse" x1="199.5663" y1="75.6314" x2="348.1365" y2="163.0642" gradientTransform="matrix(-0.788 0.1376 0.172 0.9851 370.2747 31.5998)">
			<stop  offset="0.0742" style="stop-color:#49DD5E"/>
			<stop  offset="1" style="stop-color:#22DD3B"/>
		</linearGradient>
		<path style="fill:url(#SVGID_00000135690736199093726730000012978893121714018206_);" d="M93.778,215.479
			c0.134,0.976,0.551,1.79,1.27,2.18l95.192,60.011l1.742,1.097c0.984-0.275,1.857-0.761,2.603-1.488
			c0.487-0.463,0.938-1.02,1.323-1.654c6.194-9.986,0.223-39.449-12.967-48.641L93.152,167.59l-1.893-1.193
			c-0.266-0.165-0.486-0.359-0.68-0.582c-0.271-0.308-0.468-0.679-0.594-1.046l0.58,3.272c0.211,0.619,0.622,1.192,1.26,1.592
			l91.682,60.585c10.139,8.403,15.807,37.262,8.911,44.646c-2.003,0.839-95.635-59.88-95.579-59.921l-2.31-1.453l-0.233-0.148
			c-0.686-0.436-1.079-1.09-1.204-1.802L93.778,215.479z"/>
		
			<linearGradient id="SVGID_00000027576251042447504820000007409693203554877875_" gradientUnits="userSpaceOnUse" x1="199.5663" y1="75.6314" x2="348.1365" y2="163.0642" gradientTransform="matrix(-0.788 0.1376 0.172 0.9851 370.2747 31.5998)">
			<stop  offset="0.0742" style="stop-color:#49DD5E"/>
			<stop  offset="1" style="stop-color:#22DD3B"/>
		</linearGradient>
		<path style="opacity:0.3;fill:url(#SVGID_00000027576251042447504820000007409693203554877875_);" d="M93.778,215.479
			c0.134,0.976,0.551,1.79,1.27,2.18l95.192,60.011l1.742,1.097c0.984-0.275,1.857-0.761,2.603-1.488
			c0.487-0.463,0.938-1.02,1.323-1.654c6.194-9.986,0.223-39.449-12.967-48.641L93.152,167.59l-1.893-1.193
			c-0.266-0.165-0.486-0.359-0.68-0.582c-0.271-0.308-0.468-0.679-0.594-1.046l0.58,3.272c0.211,0.619,0.622,1.192,1.26,1.592
			l91.682,60.585c10.139,8.403,15.807,37.262,8.911,44.646c-2.003,0.839-95.635-59.88-95.579-59.921l-2.31-1.453l-0.233-0.148
			c-0.686-0.436-1.079-1.09-1.204-1.802L93.778,215.479z"/>
		
			<linearGradient id="SVGID_00000104683611594592397090000006141447927217017995_" gradientUnits="userSpaceOnUse" x1="199.5662" y1="75.6318" x2="348.1361" y2="163.0644" gradientTransform="matrix(-0.788 0.1376 0.172 0.9851 370.2747 31.5998)">
			<stop  offset="0.0742" style="stop-color:#49DD5E"/>
			<stop  offset="1" style="stop-color:#22DD3B"/>
		</linearGradient>
		<path style="opacity:0.3;fill:url(#SVGID_00000104683611594592397090000006141447927217017995_);" d="M93.09,211.542l0.688,3.936
			c0.135,0.977,0.552,1.791,1.271,2.18l95.191,60.013l1.743,1.095c0.983-0.275,1.855-0.762,2.604-1.487
			c0.485-0.463,0.938-1.021,1.323-1.653c0.438-0.707,0.814-1.51,1.13-2.396c1.104-3.068,1.497-7.134,1.256-11.615
			c-0.156-2.863-0.568-5.897-1.222-8.952c-2.21-10.309-7.164-20.825-14.131-25.679l-89.323-59.099l-0.467-0.294l-1.894-1.193
			c-0.265-0.164-0.486-0.359-0.679-0.583c-0.271-0.308-0.466-0.677-0.594-1.045l0.578,3.272c0.213,0.62,0.623,1.193,1.26,1.594
			l2.966,1.958l88.717,58.625c8.981,7.443,14.455,30.936,10.795,41.338c-0.473,1.34-1.096,2.463-1.884,3.308
			c-2.004,0.841-95.638-59.878-95.579-59.921l-2.311-1.451l-0.232-0.149C93.609,212.906,93.214,212.253,93.09,211.542z"/>
		
			<linearGradient id="SVGID_00000031926301878869401890000012170704860000327556_" gradientUnits="userSpaceOnUse" x1="199.5667" y1="75.6317" x2="348.1351" y2="163.0635" gradientTransform="matrix(-0.788 0.1376 0.172 0.9851 370.2747 31.5998)">
			<stop  offset="0.0742" style="stop-color:#49DD5E"/>
			<stop  offset="1" style="stop-color:#22DD3B"/>
		</linearGradient>
		<path style="opacity:0.3;fill:url(#SVGID_00000031926301878869401890000012170704860000327556_);" d="M93.09,211.542l0.687,3.929
			c0.135,0.977,0.553,1.798,1.272,2.188l95.178,60.005l1.754,1.103c2.604-0.729,4.148-2.978,5.057-5.536
			c1.104-3.068,1.496-7.157,1.255-11.639c-0.156-2.863-0.572-5.9-1.227-8.955c-0.18-0.841-0.379-1.688-0.597-2.528
			c-2.433-9.462-7.152-18.69-13.549-23.147l-89.323-59.099l-0.467-0.294l-1.894-1.193c-0.265-0.164-0.486-0.359-0.679-0.582
			c-0.271-0.308-0.444-0.654-0.572-1.022l0.557,3.249c0.213,0.62,0.624,1.193,1.26,1.594l2.987,1.981l88.696,58.602
			c0.084,0.068,0.164,0.137,0.249,0.211c0.084,0.071,0.165,0.146,0.248,0.22c0.081,0.075,0.163,0.149,0.246,0.227
			c8.537,8.083,13.634,30.591,10.075,40.704c-0.22,0.627-0.476,1.21-0.769,1.737c-0.325,0.596-0.699,1.123-1.116,1.571
			c-2.004,0.841-95.658-59.902-95.6-59.945l-2.311-1.451l-0.232-0.149C93.587,212.883,93.214,212.253,93.09,211.542z"/>
		
			<linearGradient id="SVGID_00000133522502217649921260000013822826934950418586_" gradientUnits="userSpaceOnUse" x1="324.8526" y1="223.8526" x2="179.6356" y2="136.1912">
			<stop  offset="0" style="stop-color:#22DD3B"/>
			<stop  offset="1" style="stop-color:#1CB831"/>
		</linearGradient>
		<path style="fill:url(#SVGID_00000133522502217649921260000013822826934950418586_);" d="M305.485,109.612l117.957,38.695
			c12.351,5.626,16.499,47.146,9.041,51.783l-240.502,78.675c11.847-3.18,6.257-41.114-9.041-51.783l-91.728-60.604
			c-2.221-1.399-1.747-4.923,0.717-5.556l197.292-51.781C294.557,107.673,300.174,107.87,305.485,109.612z"/>
		
			<linearGradient id="SVGID_00000182493236294052126600000003722264450072093330_" gradientUnits="userSpaceOnUse" x1="317.2659" y1="241.5512" x2="312.741" y2="227.0713">
			<stop  offset="0.0742" style="stop-color:#000000"/>
			<stop  offset="1" style="stop-color:#FFFFFF"/>
		</linearGradient>
		<path style="opacity:0.4;fill:url(#SVGID_00000182493236294052126600000003722264450072093330_);" d="M197.939,257.743
			l238.233-73.818c0.19,7.926-0.98,14.482-3.689,16.166l-240.502,78.675C197.54,277.273,199.259,268.131,197.939,257.743z"/>
		
			<linearGradient id="SVGID_00000157278315944915186340000003243172255147363490_" gradientUnits="userSpaceOnUse" x1="119.0802" y1="132.3498" x2="116.5173" y2="155.4167" gradientTransform="matrix(-0.788 0.1376 0.172 0.9851 370.2747 31.5998)">
			<stop  offset="0.0742" style="stop-color:#000000"/>
			<stop  offset="0.5229" style="stop-color:#FFFFFF"/>
			<stop  offset="1" style="stop-color:#000000"/>
		</linearGradient>
		<path style="opacity:0.4;fill:url(#SVGID_00000157278315944915186340000003243172255147363490_);" d="M417.519,146.364
			l5.924,1.943c3.726,1.697,6.698,6.669,8.838,12.901l-242.073,73.833c-2.079-3.326-4.513-6.139-7.267-8.059l-10.096-6.365
			L417.519,146.364z"/>
	</g>
</g>
</svg>
